Coordinates
version=1
nRows=14
nColumns=40
inDegrees=yes

Units are S.I. units (second, meters, Newtons, ...)
If the header above contains a line with 'inDegrees', this indicates whether rotational values are in degrees (yes) or radians (no).

endheader
time	pelvis_tilt	pelvis_list	pelvis_rotation	pelvis_tx	pelvis_ty	pelvis_tz	hip_flexion_r	hip_adduction_r	hip_rotation_r	knee_angle_r	knee_angle_r_beta	ankle_angle_r	subtalar_angle_r	mtp_angle_r	hip_flexion_l	hip_adduction_l	hip_rotation_l	knee_angle_l	knee_angle_l_beta	ankle_angle_l	subtalar_angle_l	mtp_angle_l	lumbar_extension	lumbar_bending	lumbar_rotation	arm_flex_r	arm_add_r	arm_rot_r	elbow_flex_r	pro_sup_r	wrist_flex_r	wrist_dev_r	arm_flex_l	arm_add_l	arm_rot_l	elbow_flex_l	pro_sup_l	wrist_flex_l	wrist_dev_l
      3.29500000	    -39.78229203	     -3.47400866	     -1.09163257	     -0.41818394	      0.59877633	     -0.88699785	    102.80696651	    -19.44150802	     -4.16307524	     96.08724813	      1.67703885	     30.58820235	      0.00000000	      0.00000000	    108.00263938	    -25.29681735	      5.14561714	     97.07675516	      1.69430900	     30.37984939	      0.00000000	      0.00000000	    -15.65433028	      2.86569996	     -6.83773693	    -31.47673812	    -42.92776311	     11.85921390	    119.68533346	     87.95406233	      0.00000000	      0.00000000	    -50.95284549	    -33.44670363	     -2.37247341	    116.82471225	     88.06318428	      0.00000000	      0.00000000
      3.30000000	    -39.71140867	     -3.56719630	     -1.00805694	     -0.41790447	      0.59894999	     -0.88697487	    102.66381453	    -19.53598571	     -4.27150808	     96.10863318	      1.67741209	     30.67701857	      0.00000000	      0.00000000	    107.94404493	    -25.22290044	      5.20922294	     97.06333239	      1.69407473	     30.42006796	      0.00000000	      0.00000000	    -15.75743890	      2.98494926	     -6.81447702	    -31.52284312	    -42.87571341	     11.76993123	    119.69514955	     87.93497852	      0.00000000	      0.00000000	    -50.75965012	    -33.53556230	     -2.26422385	    116.75185184	     88.07178920	      0.00000000	      0.00000000
      3.30500000	    -39.60214700	     -3.59778502	     -1.09111902	     -0.41752925	      0.59926298	     -0.88651171	    102.46940991	    -19.40858511	     -4.34795574	     96.09342217	      1.67714661	     30.77614914	      0.00000000	      0.00000000	    107.82642297	    -25.39291235	      5.23309664	     97.06789202	      1.69415431	     30.48876333	      0.00000000	      0.00000000	    -15.90689977	      2.97657716	     -6.57036568	    -31.63679508	    -42.75118821	     11.62424409	    119.68915388	     87.89035388	      0.00000000	      0.00000000	    -50.48459019	    -33.76428282	     -2.03730140	    116.66004938	     88.10968481	      0.00000000	      0.00000000
      3.31000000	    -39.19213552	     -3.72861837	     -1.95216853	     -0.41626362	      0.60018714	     -0.88388797	    101.77956935	    -18.35531668	     -4.79231758	     96.00882515	      1.67567011	     30.83741422	      0.00000000	      0.00000000	    107.63055653	    -26.64966011	      5.57486465	     97.27213362	      1.69771900	     30.42222369	      0.00000000	      0.00000000	    -16.40892986	      2.75279519	     -5.70117651	    -31.40428269	    -42.54468646	     11.82300656	    119.47855958	     87.93444968	      0.00000000	      0.00000000	    -50.44874910	    -33.83206980	     -2.10752700	    116.60474599	     88.06377881	      0.00000000	      0.00000000
      3.31500000	    -39.25243497	     -3.76888038	     -2.03937148	     -0.41629024	      0.60027716	     -0.88334163	    101.78092056	    -18.20738139	     -4.85537455	     95.95934197	      1.67480647	     30.83188522	      0.00000000	      0.00000000	    107.71380702	    -26.76420867	      5.65333667	     97.22159755	      1.69683698	     30.39777845	      0.00000000	      0.00000000	    -16.36566117	      2.74573768	     -5.60288783	    -31.31187621	    -42.55687273	     11.95331014	    119.42815765	     87.92411774	      0.00000000	      0.00000000	    -50.40448846	    -33.90202073	     -2.08168946	    116.56600599	     88.06610814	      0.00000000	      0.00000000
      3.32000000	    -39.28188810	     -3.82738368	     -1.92413335	     -0.41627602	      0.60033426	     -0.88342597	    101.77922093	    -18.32297186	     -4.89986671	     95.96118842	      1.67483869	     30.86283718	      0.00000000	      0.00000000	    107.74608695	    -26.60430938	      5.71976171	     97.16821046	      1.69590520	     30.37087594	      0.00000000	      0.00000000	    -16.35553224	      2.83714432	     -5.67115617	    -31.34971980	    -42.59531227	     11.91061333	    119.51293570	     87.95218915	      0.00000000	      0.00000000	    -50.38485477	    -33.89312882	     -2.09703901	    116.61111434	     88.04797591	      0.00000000	      0.00000000
      3.32500000	    -38.65427409	     -3.71597631	     -1.68241297	     -0.41471380	      0.60167087	     -0.88393255	    101.06197237	    -18.66251074	     -4.83044975	     96.06669809	      1.67668018	     30.95001467	      0.00000000	      0.00000000	    106.85444372	    -26.55806328	      5.34535173	     97.25716445	      1.69745774	     30.37910429	      0.00000000	      0.00000000	    -17.03296869	      2.77531570	     -5.79056854	    -31.22859339	    -42.49248271	     11.92107860	    119.31960336	     87.93035441	      0.00000000	      0.00000000	    -49.97892451	    -34.05266148	     -1.79426363	    116.43203323	     88.07202558	      0.00000000	      0.00000000
      3.33000000	    -38.62846409	     -3.74670241	     -1.42812361	     -0.41441768	      0.60196561	     -0.88442322	    100.97273585	    -18.98314968	     -4.85053902	     96.07389547	      1.67680580	     31.01617766	      0.00000000	      0.00000000	    106.72158101	    -26.25300723	      5.27148590	     97.16351429	      1.69582324	     30.46314899	      0.00000000	      0.00000000	    -17.05811800	      2.89201544	     -5.98869186	    -31.25814630	    -42.50487272	     11.82810419	    119.37931239	     87.91589347	      0.00000000	      0.00000000	    -49.87976467	    -34.02679389	     -1.69015846	    116.34639590	     88.07577377	      0.00000000	      0.00000000
      3.33500000	    -39.73450686	     -3.81141765	     -0.36944015	     -0.41710983	      0.60004698	     -0.88705341	    102.40469561	    -20.19505868	     -4.51473127	     96.08214814	      1.67694984	     30.77981838	      0.00000000	      0.00000000	    107.79230527	    -24.48385300	      5.30926063	     96.75559096	      1.68870363	     30.28047016	      0.00000000	      0.00000000	    -15.83721816	      3.38235249	     -7.01228071	    -31.73272374	    -42.79802913	     11.40155376	    119.77708428	     87.91402886	      0.00000000	      0.00000000	    -50.05019147	    -33.95045629	     -1.64392930	    116.57643822	     88.08958619	      0.00000000	      0.00000000
      3.34000000	    -39.81431448	     -3.80941927	     -0.30038508	     -0.41709585	      0.60018573	     -0.88702189	    102.45895606	    -20.25410678	     -4.50527010	     96.05505162	      1.67647691	     30.80287445	      0.00000000	      0.00000000	    107.82408916	    -24.39675841	      5.29439193	     96.69328141	      1.68761613	     30.26109438	      0.00000000	      0.00000000	    -15.74724948	      3.38951176	     -7.11757512	    -31.63606029	    -42.87655465	     11.52508842	    119.72031209	     87.88891546	      0.00000000	      0.00000000	    -50.06503042	    -33.95222436	     -1.58456324	    116.54483137	     88.10349120	      0.00000000	      0.00000000
      3.34500000	    -40.08345177	     -3.84308382	     -0.35807336	     -0.41761947	      0.59999108	     -0.88662637	    102.72817321	    -20.13147392	     -4.52984479	     95.97534046	      1.67508569	     30.67972207	      0.00000000	      0.00000000	    108.13187320	    -24.37440494	      5.42075080	     96.59949668	      1.68597927	     30.15056562	      0.00000000	      0.00000000	    -15.47678137	      3.37269249	     -7.13728024	    -31.59543430	    -42.93783675	     11.53259002	    119.77388521	     87.90798009	      0.00000000	      0.00000000	    -50.27892717	    -33.85772471	     -1.76181197	    116.65126305	     88.09839597	      0.00000000	      0.00000000
      3.35000000	    -40.12845958	     -3.79885162	     -1.48809079	     -0.41749388	      0.60040406	     -0.88339627	    102.61160688	    -18.66809989	     -4.77523290	     95.72595682	      1.67073313	     30.69250932	      0.00000000	      0.00000000	    108.36355567	    -25.82031455	      5.73124377	     96.67459333	      1.68728996	     30.14105053	      0.00000000	      0.00000000	    -15.48656837	      2.88960123	     -6.13530714	    -31.32899817	    -42.82504974	     11.84795572	    119.65472394	     87.89810892	      0.00000000	      0.00000000	    -50.51547266	    -33.96426539	     -1.97154057	    116.73043843	     88.11064666	      0.00000000	      0.00000000
      3.35500000	    -40.80707495	     -3.82943517	     -0.41294007	     -0.41928861	      0.59953487	     -0.88597867	    103.50395768	    -19.92526220	     -4.46329111	     95.73581295	      1.67090515	     30.56764999	      0.00000000	      0.00000000	    108.85470724	    -24.20660422	      5.57350082	     96.26741953	      1.68018343	     30.00145802	      0.00000000	      0.00000000	    -14.74161301	      3.29744690	     -7.11893676	    -31.69900762	    -43.02438792	     11.44751523	    119.90242436	     87.87870416	      0.00000000	      0.00000000	    -50.46165870	    -33.98906680	     -1.73826431	    116.77785896	     88.12187670	      0.00000000	      0.00000000
      3.36000000	    -40.44879467	     -4.02841855	     -0.67073915	     -0.41819728	      0.60073168	     -0.88496784	    102.82613920	    -19.60695935	     -4.85724709	     95.64712265	      1.66935721	     30.68884783	      0.00000000	      0.00000000	    108.51972631	    -24.64259889	      5.77812869	     96.27458131	      1.68030843	     30.12007237	      0.00000000	      0.00000000	    -15.16017709	      3.38809879	     -6.72804788	    -31.61452778	    -42.90228520	     11.47916228	    119.73968654	     87.81411981	      0.00000000	      0.00000000	    -50.26306521	    -34.10164799	     -1.60645918	    116.64882619	     88.15760016	      0.00000000	      0.00000000
